<?xml version="1.0" encoding="iso-8859-1"?>
<!-- Generator: Adobe Illustrator 16.0.0, SVG Export Plug-In . SVG Version: 6.00 Build 0)  -->
<!DOCTYPE svg PUBLIC "-//W3C//DTD SVG 1.1//EN" "http://www.w3.org/Graphics/SVG/1.1/DTD/svg11.dtd">
<svg version="1.1" id="Capa_1" xmlns="http://www.w3.org/2000/svg" xmlns:xlink="http://www.w3.org/1999/xlink" x="0px" y="0px"
	 width="106.048px" height="106.048px" viewBox="0 0 106.048 106.048" style="enable-background:new 0 0 106.048 106.048;"
	 xml:space="preserve">
<g>
	<path style="fill:#010002;" d="M84.838,0H21.209C9.538,0,0,9.543,0,21.209v63.629c0,11.666,9.538,21.21,21.209,21.21h63.628
		c11.661,0,21.21-9.544,21.21-21.21V21.209C106.048,9.543,96.499,0,84.838,0z M25.784,26.128c5.782,0,10.463,4.689,10.463,10.478
		c0,5.792-4.681,10.468-10.463,10.468c-5.799,0-10.493-4.681-10.493-10.473C15.291,30.812,19.99,26.128,25.784,26.128z
		 M33.303,45.318v3.814c-0.774-0.212-1.625-0.36-2.555-0.474v-1.651C31.682,46.556,32.529,45.986,33.303,45.318z M51.066,67.383
		c-0.588,0-1.181-0.14-1.727-0.451l-11.985-5.686l0.891,31.297l-22.471,0.249l-1.553-31.546c0,0-2.216-10.227,10.55-11.718h1.002
		h1.002c6.576,0,8.741,1.295,13.173,4.023l9.856,5.51l6.988-11.467c1.024-1.67,3.2-2.201,4.888-1.188
		c1.678,1.022,2.206,3.208,1.191,4.883l-8.767,14.39C53.438,66.777,52.266,67.383,51.066,67.383z M43.341,54.188h8.171l-1.563,2.553
		h-2.04L43.341,54.188z M61.775,45.101L70.34,30.17l1.227,0.707l-8.549,14.937L61.775,45.101z M91.963,56.741h-31.12l1.554-2.553
		h27.02V15.806H33.303v12.073c-0.774-0.663-1.621-1.235-2.555-1.681V13.256h61.215V56.741z"/>
</g>
<g>
</g>
<g>
</g>
<g>
</g>
<g>
</g>
<g>
</g>
<g>
</g>
<g>
</g>
<g>
</g>
<g>
</g>
<g>
</g>
<g>
</g>
<g>
</g>
<g>
</g>
<g>
</g>
<g>
</g>
</svg>
